<?xml version="1.0" encoding="UTF-8" standalone="no"?>
<svg width="412px" height="491px" viewBox="0 0 412 491" version="1.1" xmlns="http://www.w3.org/2000/svg" xmlns:xlink="http://www.w3.org/1999/xlink" xmlns:sketch="http://www.bohemiancoding.com/sketch/ns">
    <title>coffee_icon</title>
    <description>Created with Sketch (http://www.bohemiancoding.com/sketch)</description>
    <defs></defs>
    <g id="Page-1" stroke="none" stroke-width="1" fill="none" fill-rule="evenodd" sketch:type="MSPage">
        <path d="M217.95625,140 C301.927699,140 370,126.120828 370,109 C370,91.8791719 301.927699,78 217.95625,78 C133.984801,78 52,91.8791719 52,109 C52,126.120828 133.984801,140 217.95625,140 Z" id="Oval-1" stroke="#FAF7CF" stroke-width="15" fill="#FAF7CF" sketch:type="MSShapeGroup"></path>
        <path d="M78,248 L79.7394137,311 L105,437 L163,456 L211.5,456 L262,456 L325,437 L340.651466,318 L345,252 L78,248 Z" id="Path-5" stroke="#979797" fill="#774F38" sketch:type="MSShapeGroup"></path>
        <path d="M207,284 C281.00616,284 341,268.10611 341,248.5 C341,228.89389 281.00616,213 207,213 C132.99384,213 73,228.89389 73,248.5 C73,268.10611 132.99384,284 207,284 Z" id="Oval-1" fill="#BEA480" sketch:type="MSShapeGroup"></path>
        <path d="M102.75,431 C102.75,445.083262 152.44639,456.5 213.75,456.5 C275.05361,456.5 324.75,445.083262 324.75,431" id="Oval-1" stroke="#FAF7CF" stroke-width="15" sketch:type="MSShapeGroup"></path>
        <path d="M52,106.905451 L103,432.905478 M324.911413,432.393361 L369.997277,107.324364" id="Path-7" stroke="#FAF7CF" stroke-width="15" sketch:type="MSShapeGroup"></path>
        <path d="M49.0121212,80.8536273 C46.0030303,91.7742886 45,107 45,107 L378,109 L376,80.8536273 C376,80.8536273 52.0212064,69.9329659 49.0121212,80.8536273 Z" id="Rectangle-10" fill="#FAF7CF" sketch:type="MSShapeGroup"></path>
        <path d="M212.5,105 C302.798561,105 376,94.2548347 376,81 C376,67.7451653 302.798561,57 212.5,57 C122.201439,57 49,67.7451653 49,81 C49,94.2548347 122.201439,105 212.5,105 Z" id="Oval-1" fill="#FDFCE9" sketch:type="MSShapeGroup"></path>
        <path d="M50,79 L73,46 L131,59 L128,85 L50,79 Z" id="Path-23" fill="#FDFCE9" sketch:type="MSShapeGroup"></path>
        <path d="M292,79 L317,45 L375,58 L372,84 L292,79 Z" id="Path-23" fill="#FDFCE9" sketch:type="MSShapeGroup" transform="translate(333.500000, 64.500000) scale(-1, 1) translate(-333.500000, -64.500000) "></path>
        <path d="M212,69 C289.319869,69 352,59.8218379 352,48.5 C352,37.1781621 289.319869,28 212,28 C134.680131,28 72,37.1781621 72,48.5 C72,59.8218379 134.680131,69 212,69 Z" id="Oval-1" fill="#FAF7CF" sketch:type="MSShapeGroup"></path>
    </g>
</svg>