<?xml version="1.0" encoding="UTF-8" standalone="no"?>
<svg width="556px" height="343px" viewBox="0 0 556 343" version="1.1" xmlns="http://www.w3.org/2000/svg" xmlns:xlink="http://www.w3.org/1999/xlink" xmlns:sketch="http://www.bohemiancoding.com/sketch/ns">
    <title>cappuccino</title>
    <description>Created with Sketch (http://www.bohemiancoding.com/sketch)</description>
    <defs></defs>
    <g id="Page-1" stroke="none" stroke-width="1" fill="none" fill-rule="evenodd" sketch:type="MSPage">
        <path d="M253,110 C347.992982,110 425,92.7629639 425,71.5 C425,50.2370361 347.992982,33 253,33 C158.007018,33 81,50.2370361 81,71.5 C81,92.7629639 158.007018,110 253,110 Z" id="Oval-1" stroke="#FAF7CF" stroke-width="15" sketch:type="MSShapeGroup"></path>
        <path d="M94,178 L86,211.928571 L124,272.642857 L178,297.619043 L263,303 L309,303 L366,284.25 L405.017699,233.136905 L424,181.163004 L94,178 Z" id="Path-5" stroke="#979797" fill="#774F38" sketch:type="MSShapeGroup"></path>
        <path d="M253,207 C344.126988,207 418,194.463974 418,179 C418,163.536026 344.126988,151 253,151 C161.873012,151 88,163.536026 88,179 C88,194.463974 161.873012,207 253,207 Z" id="Oval-1" fill="#BEA480" sketch:type="MSShapeGroup"></path>
        <path d="M253,193 C344.126988,193 418,180.463974 418,165 C418,149.536026 344.126988,137 253,137 C161.873012,137 88,149.536026 88,165 C88,180.463974 161.873012,193 253,193 Z" id="Oval-1" fill="#FAF7CF" sketch:type="MSShapeGroup"></path>
        <path d="M142.083581,277.224259 C142.083581,291.307521 191.779971,302.724259 253.083581,302.724259 C314.387191,302.724259 364.083581,291.307521 364.083581,277.224259" id="Oval-1" stroke="#FAF7CF" stroke-width="15" sketch:type="MSShapeGroup"></path>
        <path d="M116.773657,77.5943867 C109.286521,84.5629248 86.6193571,145.555226 85.3979565,193.575268 C84.1765562,241.595311 86.4707245,254.916889 111.43962,291.411014" id="Oval-9" stroke="#FAF7CF" stroke-width="15" sketch:type="MSShapeGroup" transform="translate(101.167299, 184.416432) rotate(342.000000) translate(-101.167299, -184.416432) "></path>
        <path d="M420.773657,77.5943867 C413.286521,84.5629248 390.619357,145.555226 389.397957,193.575268 C388.176556,241.595311 390.470725,254.916889 415.43962,291.411014" id="Oval-9" stroke="#FAF7CF" stroke-width="15" sketch:type="MSShapeGroup" transform="translate(405.167299, 184.416432) scale(-1, 1) rotate(342.000000) translate(-405.167299, -184.416432) "></path>
        <path d="M428,125.000001 C428,125.000001 450,101 479,105 C508,109 520.999999,124.999999 521,147.999999 C521,170.999999 510,194.000004 479,205.000004 C448,216.000004 405,216.999999 405,216.999999" id="Path-15" stroke="#FAF7CF" stroke-width="15" sketch:type="MSShapeGroup"></path>
    </g>
</svg>