<?xml version="1.0" encoding="utf-8"?>
<!-- Generator: Adobe Illustrator 16.0.0, SVG Export Plug-In . SVG Version: 6.00 Build 0)  -->
<!DOCTYPE svg PUBLIC "-//W3C//DTD SVG 1.1//EN" "http://www.w3.org/Graphics/SVG/1.1/DTD/svg11.dtd">
<svg version="1.1" id="Layer_1" xmlns="http://www.w3.org/2000/svg" xmlns:xlink="http://www.w3.org/1999/xlink" x="0px" y="0px"
	 width="100px" height="100px" viewBox="0 0 100 100" enable-background="new 0 0 100 100" xml:space="preserve">
<g>
	<g>
		<path d="M28.093,13.868v0.522h-9.922v9.452h-0.522V5.2h11.487v0.522H18.171v8.146H28.093z"/>
		<path d="M30.206,23.842V5.2h7.625c1.949,0,3.377,0.387,4.281,1.162c0.905,0.774,1.375,1.98,1.41,3.616
			c0.035,1.253-0.297,2.294-0.992,3.12c-0.696,0.827-1.697,1.388-3.002,1.684v0.052c0.782,0.104,1.418,0.292,1.905,0.562
			c0.487,0.27,0.861,0.623,1.122,1.057c0.262,0.436,0.436,0.949,0.523,1.541c0.086,0.592,0.13,1.262,0.13,2.011
			c0,0.261,0.009,0.587,0.026,0.979c0.017,0.392,0.043,0.779,0.078,1.162s0.078,0.731,0.131,1.044
			c0.052,0.313,0.121,0.531,0.209,0.653h-0.574c-0.088-0.191-0.157-0.448-0.209-0.771c-0.053-0.322-0.092-0.666-0.118-1.031
			c-0.026-0.366-0.044-0.735-0.052-1.11c-0.01-0.374-0.014-0.709-0.014-1.005c0-0.766-0.057-1.449-0.17-2.049
			s-0.344-1.105-0.691-1.515c-0.348-0.409-0.844-0.722-1.488-0.94c-0.645-0.217-1.506-0.326-2.585-0.326h-7.023v8.747H30.206z
			 M37.7,14.574c0.695,0,1.361-0.087,1.997-0.262c0.636-0.173,1.196-0.452,1.685-0.835c0.486-0.382,0.879-0.865,1.174-1.449
			C42.853,11.445,43,10.744,43,9.926c-0.018-1.323-0.417-2.354-1.201-3.094c-0.783-0.74-2.062-1.11-3.838-1.11h-7.232v8.852H37.7z"
			/>
		<path d="M46.146,10.762c0.374-1.184,0.923-2.22,1.645-3.107s1.618-1.592,2.688-2.115c1.07-0.522,2.303-0.783,3.695-0.783
			S56.8,5.018,57.87,5.54c1.07,0.522,1.967,1.227,2.689,2.115c0.721,0.888,1.27,1.924,1.645,3.107
			c0.373,1.184,0.561,2.437,0.561,3.76s-0.188,2.576-0.561,3.759c-0.375,1.184-0.924,2.22-1.645,3.107
			c-0.723,0.888-1.619,1.588-2.689,2.102c-1.07,0.513-2.303,0.77-3.695,0.77s-2.625-0.257-3.695-0.77
			c-1.07-0.514-1.967-1.214-2.688-2.102c-0.722-0.887-1.271-1.923-1.645-3.107c-0.374-1.184-0.562-2.437-0.562-3.759
			S45.772,11.946,46.146,10.762z M46.694,18.229c0.375,1.132,0.904,2.106,1.593,2.925c0.688,0.818,1.528,1.458,2.521,1.918
			c0.992,0.462,2.113,0.692,3.367,0.692s2.377-0.23,3.369-0.692c0.992-0.46,1.832-1.1,2.52-1.918s1.217-1.793,1.592-2.925
			c0.375-1.131,0.57-2.367,0.588-3.707c-0.018-1.34-0.213-2.576-0.588-3.708c-0.375-1.131-0.904-2.105-1.592-2.924
			c-0.688-0.818-1.527-1.458-2.52-1.919c-0.992-0.461-2.115-0.692-3.369-0.692S51.8,5.509,50.808,5.97
			c-0.992,0.461-1.833,1.101-2.521,1.919c-0.688,0.819-1.218,1.793-1.593,2.924c-0.374,1.132-0.57,2.368-0.588,3.708
			C46.124,15.862,46.32,17.097,46.694,18.229z"/>
		<path d="M82.53,5.2v18.642h-0.523V5.853h-0.051l-7.912,17.99H73.47l-7.91-17.99h-0.053v17.99h-0.523V5.2h0.863l7.885,17.963h0.053
			L81.669,5.2H82.53z"/>
	</g>
	<g>
		<path fill="#9B1C2B" d="M24.039,33.425c-0.188,0.411-0.432,0.763-0.729,1.057c-0.297,0.294-0.65,0.524-1.057,0.689
			s-0.867,0.249-1.379,0.249c-0.535,0-1.027-0.104-1.476-0.311c-0.448-0.208-0.833-0.494-1.153-0.859
			c-0.32-0.365-0.57-0.802-0.752-1.311c-0.18-0.508-0.271-1.064-0.271-1.667c0-0.49,0.069-0.989,0.209-1.498
			c0.14-0.508,0.36-0.97,0.661-1.384c0.302-0.415,0.693-0.754,1.176-1.018c0.482-0.264,1.066-0.396,1.752-0.396
			c0.535,0,1.002,0.089,1.402,0.266c0.398,0.177,0.732,0.399,1,0.667c0.268,0.268,0.469,0.552,0.604,0.853
			c0.136,0.302,0.208,0.577,0.215,0.825h-0.226c-0.023-0.294-0.109-0.582-0.26-0.865c-0.151-0.283-0.356-0.537-0.617-0.763
			c-0.26-0.227-0.568-0.409-0.926-0.548c-0.358-0.14-0.756-0.209-1.193-0.209c-0.662,0-1.223,0.134-1.678,0.401
			c-0.457,0.268-0.824,0.603-1.103,1.006c-0.278,0.403-0.48,0.842-0.604,1.316c-0.125,0.475-0.188,0.923-0.188,1.345
			c0,0.513,0.076,1.006,0.227,1.481s0.373,0.893,0.667,1.255c0.294,0.361,0.653,0.651,1.079,0.87
			c0.426,0.219,0.91,0.328,1.453,0.328c0.482,0,0.915-0.079,1.3-0.237c0.384-0.158,0.716-0.377,0.995-0.656
			c0.278-0.279,0.504-0.61,0.678-0.995c0.174-0.385,0.29-0.799,0.351-1.244h0.226C24.355,32.564,24.228,33.014,24.039,33.425z"/>
		<path fill="#9B1C2B" d="M25.288,29.576c0.162-0.512,0.399-0.961,0.712-1.345c0.313-0.385,0.701-0.69,1.165-0.916
			c0.463-0.226,0.996-0.339,1.6-0.339c0.602,0,1.135,0.113,1.599,0.339s0.852,0.531,1.165,0.916
			c0.312,0.384,0.549,0.833,0.711,1.345c0.162,0.513,0.244,1.055,0.244,1.627c0,0.573-0.082,1.116-0.244,1.628
			c-0.162,0.513-0.398,0.961-0.711,1.345c-0.313,0.384-0.701,0.688-1.165,0.91s-0.997,0.333-1.599,0.333
			c-0.604,0-1.137-0.111-1.6-0.333c-0.464-0.222-0.852-0.525-1.165-0.91c-0.312-0.384-0.55-0.833-0.712-1.345
			c-0.162-0.512-0.243-1.055-0.243-1.628C25.045,30.631,25.126,30.089,25.288,29.576z M25.525,32.809
			c0.162,0.49,0.392,0.912,0.689,1.266c0.298,0.354,0.661,0.631,1.091,0.832c0.43,0.2,0.916,0.299,1.459,0.299
			c0.542,0,1.027-0.1,1.457-0.299c0.43-0.2,0.793-0.477,1.092-0.832c0.297-0.354,0.527-0.776,0.689-1.266s0.246-1.025,0.254-1.605
			c-0.008-0.58-0.092-1.115-0.254-1.605c-0.162-0.49-0.393-0.912-0.689-1.266c-0.299-0.354-0.662-0.631-1.092-0.831
			s-0.915-0.3-1.457-0.3c-0.543,0-1.029,0.1-1.459,0.3s-0.793,0.477-1.091,0.831c-0.298,0.354-0.527,0.776-0.689,1.266
			c-0.162,0.49-0.247,1.025-0.255,1.605C25.278,31.784,25.363,32.319,25.525,32.809z"/>
		<path fill="#9B1C2B" d="M41.039,27.168v8.071h-0.226v-7.789h-0.022l-3.425,7.789h-0.249l-3.425-7.789h-0.023v7.789h-0.226v-8.071
			h0.373l3.413,7.777h0.023l3.414-7.777H41.039z"/>
		<path fill="#9B1C2B" d="M49.856,27.168v8.071H49.63v-7.789h-0.021l-3.426,7.789h-0.248l-3.426-7.789h-0.022v7.789h-0.226v-8.071
			h0.373l3.413,7.777h0.022l3.414-7.777H49.856z"/>
		<path fill="#9B1C2B" d="M57.001,27.168v5.064c0,1.085-0.252,1.888-0.758,2.408c-0.504,0.52-1.238,0.78-2.203,0.78
			s-1.701-0.26-2.205-0.78c-0.504-0.52-0.758-1.322-0.758-2.408v-5.064h0.227v5.064c0,0.972,0.221,1.711,0.666,2.215
			c0.445,0.505,1.135,0.758,2.07,0.758c0.934,0,1.623-0.252,2.068-0.758c0.443-0.504,0.666-1.243,0.666-2.215v-5.064H57.001z"/>
		<path fill="#9B1C2B" d="M58.56,27.168l5.518,7.788h0.021v-7.788h0.227v8.071h-0.34l-5.516-7.789h-0.021v7.789h-0.227v-8.071H58.56
			z"/>
		<path fill="#9B1C2B" d="M65.772,27.168v8.071h-0.227v-8.071H65.772z"/>
		<path fill="#9B1C2B" d="M72.153,28.384c-0.141-0.283-0.324-0.513-0.553-0.69c-0.232-0.177-0.506-0.303-0.822-0.378
			c-0.316-0.075-0.654-0.113-1.016-0.113c-0.279,0-0.568,0.028-0.871,0.085c-0.301,0.057-0.574,0.157-0.818,0.3
			c-0.246,0.143-0.447,0.333-0.605,0.57c-0.158,0.238-0.236,0.537-0.236,0.899s0.08,0.652,0.242,0.87
			c0.162,0.219,0.373,0.396,0.633,0.532s0.557,0.241,0.887,0.316c0.332,0.075,0.672,0.154,1.018,0.237
			c0.377,0.098,0.732,0.192,1.068,0.283c0.336,0.09,0.627,0.211,0.877,0.362c0.248,0.151,0.447,0.35,0.594,0.599
			c0.146,0.249,0.219,0.584,0.219,1.006c0,0.385-0.082,0.712-0.248,0.984s-0.385,0.496-0.656,0.673
			c-0.271,0.177-0.576,0.305-0.916,0.384c-0.338,0.079-0.68,0.118-1.027,0.118c-0.459,0-0.885-0.053-1.273-0.158
			c-0.387-0.105-0.721-0.273-1.004-0.503s-0.502-0.525-0.656-0.887s-0.229-0.799-0.221-1.311h0.227c0,0.482,0.07,0.891,0.215,1.227
			c0.143,0.335,0.344,0.608,0.604,0.819c0.262,0.211,0.57,0.364,0.928,0.458s0.752,0.141,1.182,0.141
			c0.316,0,0.631-0.036,0.943-0.108c0.314-0.071,0.594-0.186,0.842-0.344c0.25-0.158,0.451-0.362,0.605-0.611
			c0.154-0.249,0.232-0.546,0.232-0.893c0-0.406-0.09-0.729-0.268-0.966c-0.176-0.237-0.402-0.426-0.676-0.565
			c-0.275-0.14-0.582-0.245-0.918-0.316c-0.334-0.072-0.656-0.146-0.965-0.221c-0.324-0.075-0.65-0.154-0.973-0.237
			c-0.324-0.083-0.615-0.198-0.877-0.345c-0.258-0.146-0.467-0.343-0.627-0.588c-0.156-0.245-0.236-0.563-0.236-0.955
			c0-0.399,0.082-0.733,0.248-1c0.166-0.268,0.381-0.481,0.645-0.639s0.559-0.271,0.887-0.339s0.654-0.102,0.979-0.102
			c0.398,0,0.766,0.044,1.102,0.13s0.631,0.226,0.883,0.418c0.252,0.192,0.453,0.445,0.604,0.757
			c0.15,0.313,0.238,0.695,0.262,1.147h-0.229C72.37,29.015,72.294,28.666,72.153,28.384z"/>
		<path fill="#9B1C2B" d="M81.497,27.168v8.071h-0.229v-7.789h-0.021l-3.426,7.789h-0.248l-3.426-7.789h-0.021v7.789h-0.227v-8.071
			h0.373l3.414,7.777h0.021l3.414-7.777H81.497z"/>
	</g>
	<g>
		<path d="M16.007,40.59l29.354-0.125l0.006,1.102l-14.154,0.061l0.163,38.22l-1.102,0.006L30.11,41.631l-14.099,0.061L16.007,40.59
			z"/>
		<path d="M47.421,52.188c0.779-2.5,1.926-4.69,3.441-6.569s3.4-3.374,5.654-4.485c2.252-1.111,4.848-1.673,7.785-1.686
			s5.537,0.527,7.801,1.619c2.262,1.092,4.16,2.571,5.691,4.437c1.531,1.867,2.695,4.046,3.496,6.54
			c0.801,2.494,1.207,5.136,1.219,7.925c0.012,2.791-0.373,5.436-1.15,7.936c-0.779,2.5-1.926,4.689-3.441,6.568
			s-3.4,3.365-5.654,4.457c-2.252,1.092-4.848,1.646-7.785,1.658s-5.537-0.518-7.799-1.59c-2.264-1.074-4.162-2.545-5.691-4.41
			c-1.533-1.867-2.699-4.045-3.499-6.539s-1.206-5.135-1.218-7.926C46.259,57.333,46.642,54.688,47.421,52.188z M48.644,67.933
			c0.801,2.383,1.928,4.436,3.387,6.154c1.457,1.719,3.234,3.061,5.332,4.025c2.098,0.963,4.467,1.439,7.109,1.428
			c2.645-0.012,5.01-0.508,7.1-1.49c2.088-0.98,3.854-2.336,5.297-4.07c1.443-1.73,2.553-3.791,3.334-6.182
			c0.777-2.391,1.18-4.998,1.205-7.826c-0.049-2.824-0.473-5.43-1.273-7.814c-0.799-2.382-1.928-4.433-3.385-6.153
			s-3.234-3.062-5.332-4.025c-2.096-0.963-4.467-1.44-7.109-1.429c-2.645,0.011-5.012,0.508-7.1,1.49
			c-2.088,0.982-3.854,2.339-5.297,4.07c-1.443,1.732-2.555,3.792-3.334,6.183s-1.181,4.997-1.205,7.825
			C47.421,62.944,47.845,65.55,48.644,67.933z"/>
	</g>
	<g>
		<path fill="#3465B0" d="M16.026,85.495h7.146v0.268h-3.445v9.305H19.46v-9.305h-3.434V85.495z"/>
		<path fill="#3465B0" d="M30.078,94.8v0.268h-6.409v-9.572h6.355v0.268h-6.088v4.184h5.726v0.268h-5.726V94.8H30.078z"/>
		<path fill="#3465B0" d="M30.869,95.067v-9.572h3.915c1.001,0,1.733,0.197,2.199,0.596c0.464,0.398,0.705,1.018,0.724,1.857
			c0.019,0.645-0.152,1.178-0.51,1.602c-0.358,0.426-0.871,0.713-1.542,0.865v0.027c0.402,0.053,0.729,0.148,0.979,0.289
			c0.251,0.139,0.443,0.318,0.577,0.541c0.134,0.225,0.224,0.488,0.269,0.793c0.044,0.303,0.066,0.646,0.066,1.031
			c0,0.135,0.005,0.301,0.014,0.502c0.008,0.201,0.022,0.4,0.04,0.598s0.04,0.375,0.067,0.537c0.026,0.16,0.062,0.271,0.106,0.334
			h-0.294c-0.045-0.098-0.081-0.229-0.107-0.396c-0.027-0.164-0.047-0.34-0.061-0.527c-0.014-0.189-0.023-0.379-0.027-0.57
			s-0.006-0.365-0.006-0.516c0-0.395-0.029-0.744-0.088-1.055c-0.059-0.307-0.176-0.566-0.355-0.777
			c-0.179-0.209-0.434-0.369-0.764-0.482c-0.33-0.111-0.773-0.166-1.328-0.166h-3.605v4.49H30.869z M34.717,90.308
			c0.357,0,0.699-0.045,1.025-0.133c0.327-0.09,0.614-0.232,0.864-0.43c0.252-0.197,0.452-0.445,0.604-0.744
			c0.151-0.301,0.228-0.66,0.228-1.08c-0.009-0.68-0.215-1.209-0.616-1.588c-0.403-0.381-1.06-0.57-1.972-0.57h-3.713v4.545H34.717z
			"/>
		<path fill="#3465B0" d="M39.061,95.067v-9.572h3.915c1.002,0,1.734,0.197,2.199,0.596s0.706,1.018,0.725,1.857
			c0.018,0.645-0.152,1.178-0.51,1.602c-0.357,0.426-0.872,0.713-1.543,0.865v0.027c0.402,0.053,0.729,0.148,0.979,0.289
			c0.25,0.139,0.442,0.318,0.577,0.541c0.133,0.225,0.223,0.488,0.268,0.793c0.045,0.303,0.066,0.646,0.066,1.031
			c0,0.135,0.005,0.301,0.014,0.502c0.01,0.201,0.022,0.4,0.041,0.598c0.018,0.197,0.039,0.375,0.066,0.537
			c0.027,0.16,0.062,0.271,0.107,0.334h-0.295c-0.045-0.098-0.08-0.229-0.107-0.396c-0.027-0.164-0.047-0.34-0.061-0.527
			c-0.014-0.189-0.021-0.379-0.026-0.57s-0.007-0.365-0.007-0.516c0-0.395-0.029-0.744-0.088-1.055
			c-0.058-0.307-0.176-0.566-0.354-0.777c-0.179-0.209-0.434-0.369-0.765-0.482c-0.33-0.111-0.773-0.166-1.327-0.166h-3.606v4.49
			H39.061z M42.909,90.308c0.357,0,0.699-0.045,1.025-0.133c0.326-0.09,0.614-0.232,0.865-0.43c0.25-0.197,0.451-0.445,0.604-0.744
			c0.151-0.301,0.227-0.66,0.227-1.08c-0.008-0.68-0.214-1.209-0.616-1.588c-0.402-0.381-1.06-0.57-1.971-0.57h-3.714v4.545H42.909z
			"/>
		<path fill="#3465B0" d="M47.246,88.351c0.192-0.607,0.474-1.141,0.845-1.596s0.832-0.818,1.381-1.086
			c0.551-0.268,1.182-0.402,1.898-0.402c0.715,0,1.348,0.135,1.896,0.402c0.551,0.268,1.01,0.631,1.381,1.086
			s0.652,0.988,0.846,1.596c0.191,0.607,0.287,1.252,0.287,1.932c0,0.678-0.096,1.322-0.287,1.93
			c-0.193,0.607-0.475,1.141-0.846,1.596s-0.83,0.814-1.381,1.078c-0.549,0.264-1.182,0.396-1.896,0.396
			c-0.717,0-1.348-0.133-1.898-0.396c-0.549-0.264-1.01-0.623-1.381-1.078s-0.652-0.988-0.845-1.596s-0.288-1.252-0.288-1.93
			C46.958,89.603,47.054,88.958,47.246,88.351z M47.528,92.185c0.191,0.582,0.464,1.082,0.817,1.502
			c0.353,0.42,0.784,0.748,1.294,0.984c0.51,0.238,1.086,0.357,1.73,0.357c0.643,0,1.219-0.119,1.729-0.357
			c0.51-0.236,0.941-0.564,1.295-0.984c0.352-0.42,0.625-0.92,0.816-1.502c0.193-0.58,0.293-1.215,0.303-1.902
			c-0.01-0.689-0.109-1.324-0.303-1.904c-0.191-0.582-0.465-1.082-0.816-1.502c-0.354-0.42-0.785-0.748-1.295-0.986
			c-0.51-0.236-1.086-0.355-1.729-0.355c-0.645,0-1.221,0.119-1.73,0.355c-0.51,0.238-0.941,0.566-1.294,0.986
			c-0.354,0.42-0.626,0.92-0.817,1.502c-0.193,0.58-0.293,1.215-0.303,1.904C47.235,90.97,47.335,91.604,47.528,92.185z"/>
		<path fill="#3465B0" d="M56.921,95.067v-9.572h3.914c1.002,0,1.734,0.197,2.197,0.596c0.465,0.398,0.707,1.018,0.727,1.857
			c0.016,0.645-0.154,1.178-0.51,1.602c-0.357,0.426-0.871,0.713-1.543,0.865v0.027c0.402,0.053,0.729,0.148,0.979,0.289
			c0.25,0.139,0.443,0.318,0.578,0.541c0.133,0.225,0.223,0.488,0.268,0.793c0.045,0.303,0.066,0.646,0.066,1.031
			c0,0.135,0.004,0.301,0.014,0.502s0.023,0.4,0.041,0.598s0.039,0.375,0.066,0.537c0.027,0.16,0.062,0.271,0.107,0.334H63.53
			c-0.045-0.098-0.08-0.229-0.107-0.396c-0.027-0.164-0.047-0.34-0.061-0.527c-0.014-0.189-0.021-0.379-0.027-0.57
			c-0.004-0.191-0.006-0.365-0.006-0.516c0-0.395-0.029-0.744-0.086-1.055c-0.059-0.307-0.178-0.566-0.357-0.777
			c-0.178-0.209-0.434-0.369-0.764-0.482c-0.33-0.111-0.773-0.166-1.328-0.166h-3.605v4.49H56.921z M60.769,90.308
			c0.357,0,0.699-0.045,1.025-0.133c0.326-0.09,0.615-0.232,0.865-0.43s0.451-0.445,0.604-0.744c0.15-0.301,0.227-0.66,0.227-1.08
			c-0.008-0.68-0.215-1.209-0.615-1.588c-0.402-0.381-1.061-0.57-1.973-0.57h-3.713v4.545H60.769z"/>
		<path fill="#3465B0" d="M65.38,85.495v9.572h-0.268v-9.572H65.38z"/>
		<path fill="#3465B0" d="M72.948,86.937c-0.164-0.336-0.383-0.609-0.656-0.818c-0.273-0.211-0.596-0.359-0.973-0.449
			c-0.375-0.09-0.777-0.135-1.207-0.135c-0.33,0-0.674,0.033-1.031,0.102c-0.357,0.066-0.682,0.186-0.973,0.355
			s-0.529,0.396-0.717,0.676c-0.188,0.283-0.281,0.639-0.281,1.066c0,0.43,0.096,0.773,0.287,1.033
			c0.193,0.258,0.443,0.469,0.752,0.629c0.307,0.162,0.658,0.287,1.051,0.377c0.395,0.088,0.797,0.182,1.207,0.281
			c0.447,0.115,0.869,0.229,1.268,0.334c0.398,0.107,0.744,0.252,1.039,0.43c0.295,0.18,0.529,0.416,0.703,0.711
			c0.176,0.295,0.262,0.693,0.262,1.193c0,0.455-0.098,0.844-0.295,1.166s-0.455,0.588-0.777,0.797
			c-0.322,0.211-0.684,0.363-1.086,0.457s-0.809,0.141-1.219,0.141c-0.547,0-1.049-0.062-1.51-0.188s-0.857-0.324-1.193-0.598
			c-0.336-0.271-0.594-0.623-0.777-1.051c-0.184-0.43-0.27-0.949-0.262-1.557h0.27c0,0.572,0.084,1.057,0.254,1.455
			s0.408,0.723,0.719,0.973c0.307,0.25,0.674,0.43,1.098,0.543c0.424,0.111,0.891,0.168,1.402,0.168
			c0.373,0,0.748-0.043,1.119-0.129c0.371-0.084,0.703-0.221,0.998-0.408s0.533-0.43,0.717-0.725s0.275-0.646,0.275-1.059
			c0-0.482-0.105-0.865-0.314-1.146c-0.211-0.281-0.479-0.504-0.805-0.67s-0.689-0.291-1.086-0.377
			c-0.398-0.084-0.781-0.17-1.146-0.26c-0.385-0.09-0.77-0.184-1.154-0.281c-0.383-0.1-0.729-0.236-1.039-0.41
			c-0.307-0.174-0.555-0.406-0.742-0.697c-0.188-0.289-0.283-0.668-0.283-1.133c0-0.473,0.1-0.869,0.295-1.186
			c0.197-0.318,0.453-0.57,0.766-0.758s0.662-0.322,1.051-0.402c0.391-0.08,0.775-0.121,1.16-0.121c0.475,0,0.91,0.051,1.309,0.154
			c0.396,0.102,0.746,0.27,1.045,0.496c0.299,0.229,0.539,0.527,0.719,0.898c0.178,0.371,0.279,0.824,0.307,1.361h-0.268
			C73.206,87.685,73.114,87.272,72.948,86.937z"/>
		<path fill="#3465B0" d="M84.03,85.495v9.572h-0.27v-9.238h-0.025l-4.062,9.238h-0.295l-4.062-9.238h-0.027v9.238h-0.268v-9.572
			h0.443l4.049,9.225h0.025l4.051-9.225H84.03z"/>
	</g>
</g>
</svg>
